<?xml version="1.0" encoding="UTF-8" standalone="no"?>
<svg width="958px" height="959px" viewBox="0 0 958 959" version="1.1" xmlns="http://www.w3.org/2000/svg" xmlns:xlink="http://www.w3.org/1999/xlink">
    <!-- Generator: Sketch 41 (35326) - http://www.bohemiancoding.com/sketch -->
    <title>Option #1 Copy 12</title>
    <desc>Created with Sketch.</desc>
    <defs>
        <polygon id="path-1" points="0 218.143575 541.762109 218.143575 541.762109 0 0 0"></polygon>
    </defs>
    <g id="Page-1" stroke="none" stroke-width="1" fill="none" fill-rule="evenodd">
        <g id="Option-#1-Copy-12">
            <g id="Group-2" transform="translate(-40.000000, -65.000000)">
                <rect id="Rectangle" fill="#37474F" x="40" y="64" width="958" height="960"></rect>
                <g id="Page-1" transform="translate(249.000000, 433.000000)">
                    <path d="M16.9221719,123.814525 C16.9221719,144.124022 28.9393665,163.454749 51.1343891,163.454749 C73.9425339,163.454749 85.9597285,145.102793 85.9597285,124.059218 C85.9597285,103.260335 72.838914,86.3765363 50.8891403,86.3765363 C30.1656109,86.3765363 16.9221719,104.361453 16.9221719,123.814525 L16.9221719,123.814525 Z M17.780543,87.7223464 L18.2710407,87.7223464 C26.9773756,76.2217877 39.7303167,69.9821229 54.2,69.9821229 C84.8561086,69.9821229 104.108145,96.2865922 104.108145,125.037989 C104.108145,154.64581 85.2239819,179.726816 53.9547511,179.726816 C39.7303167,179.726816 26.7321267,173.487151 18.2710407,162.231285 L17.780543,162.231285 L17.780543,212.515642 L0,212.515642 L0,72.9184358 L17.780543,72.9184358 L17.780543,87.7223464 L17.780543,87.7223464 Z" id="Fill-1" fill="#FFFFFF"></path>
                    <path d="M136.358371,84.1743017 L136.848869,84.1743017 C143.102715,75.977095 148.375566,69.9821229 159.902262,69.9821229 C165.91086,69.9821229 170.815837,71.9396648 175.843439,74.8759777 L167.382353,91.0256983 C163.826244,88.5787709 161.373756,86.3765363 156.714027,86.3765363 C137.216742,86.3765363 136.358371,111.335196 136.358371,124.915642 L136.358371,176.912849 L118.577828,176.912849 L118.577828,72.9184358 L136.358371,72.9184358 L136.358371,84.1743017 Z" id="Fill-3" fill="#FFFFFF"></path>
                    <path d="M188.59638,123.814525 C188.59638,144.124022 200.613575,163.454749 222.808597,163.454749 C245.616742,163.454749 257.633937,145.102793 257.633937,124.059218 C257.633937,103.260335 244.513122,86.3765363 222.563348,86.3765363 C201.962443,86.3765363 188.59638,104.361453 188.59638,123.814525 L188.59638,123.814525 Z M274.433484,176.912849 L256.652941,176.912849 L256.652941,162.475978 L256.285068,162.475978 C247.21086,173.976536 234.948416,179.726816 220.356109,179.726816 C189.7,179.726816 170.447964,153.789385 170.447964,125.037989 C170.447964,95.4301676 189.332127,69.9821229 220.601357,69.9821229 C234.825792,69.9821229 247.701357,76.5888268 256.285068,87.7223464 L256.775566,87.7223464 L256.775566,72.9184358 L274.556109,72.9184358 L274.556109,176.912849 L274.433484,176.912849 Z" id="Fill-5" fill="#FFFFFF"></path>
                    <polyline id="Fill-7" fill="#FFFFFF" points="303.250226 72.9184358 303.250226 39.3955307 321.030769 39.3955307 321.030769 72.7960894 339.669683 72.7960894 339.669683 89.1905028 321.030769 89.1905028 321.030769 176.790503 303.250226 176.790503 303.250226 89.1905028"></polyline>
                    <polyline id="Fill-9" fill="#FFFFFF" points="303.250226 89.3128492 284.611312 89.3128492 284.611312 72.9184358 303.250226 72.9184358"></polyline>
                    <polyline id="Fill-11" fill="#FFFFFF" points="364.439819 72.9184358 364.439819 39.3955307 382.220362 39.3955307 382.220362 72.7960894 400.859276 72.7960894 400.859276 89.1905028 382.220362 89.1905028 382.220362 176.790503 364.439819 176.790503 364.439819 89.1905028"></polyline>
                    <polyline id="Fill-13" fill="#FFFFFF" points="364.439819 89.3128492 345.800905 89.3128492 345.800905 72.9184358 364.439819 72.9184358"></polyline>
                    <mask id="mask-2" fill="white">
                        <use xlink:href="#path-1"></use>
                    </mask>
                    <g id="Clip-16"></g>
                    <polygon id="Fill-15" fill="#FFFFFF" mask="url(#mask-2)" points="411.404977 176.912849 429.18552 176.912849 429.18552 39.3955307 411.404977 39.3955307"></polygon>
                    <path d="M522.993213,113.659777 C520.540724,98.6111732 507.910407,86.4988827 492.337104,86.4988827 C477.00905,86.4988827 462.784615,98.6111732 460.577376,113.659777 L522.993213,113.659777 Z M459.841629,128.70838 C460.086878,147.91676 473.820814,163.454749 494.053846,163.454749 C509.136652,163.454749 518.946606,154.401117 525.813575,142.044134 L540.89638,150.730726 C530.963801,169.327374 514.041629,179.971508 492.704977,179.971508 C461.680995,179.971508 441.693213,156.236313 441.693213,126.383799 C441.693213,95.6748603 459.59638,70.2268156 492.21448,70.2268156 C525.69095,70.2268156 543.471493,97.877095 541.632127,128.830726 L459.841629,128.830726 L459.841629,128.70838 Z" id="Fill-17" fill="#FFFFFF" mask="url(#mask-2)"></path>
                    <path d="M48.6819005,204.563128 C48.6819005,200.770391 46.5972851,198.201117 43.5316742,198.201117 C40.4660633,198.201117 38.5040724,200.770391 38.5040724,204.563128 C38.5040724,208.355866 40.5886878,210.92514 43.5316742,210.92514 C46.5972851,210.92514 48.6819005,208.355866 48.6819005,204.563128 M37.2778281,213.983799 L39.239819,213.983799 C39.6076923,215.451955 41.3244344,216.30838 43.7769231,216.30838 C46.7199095,216.30838 48.6819005,214.840223 48.6819005,212.393296 L48.6819005,209.212291 C47.8235294,211.292179 45.738914,212.637989 43.1638009,212.637989 C39.1171946,212.637989 36.419457,209.334637 36.419457,204.563128 C36.419457,199.669274 39.1171946,196.488268 43.1638009,196.488268 C45.738914,196.488268 47.8235294,197.834078 48.6819005,199.913966 L48.6819005,196.610615 L50.521267,196.610615 L50.521267,212.27095 C50.521267,215.941341 47.8235294,218.143575 43.5316742,218.143575 C40.09819,218.143575 37.6457014,216.430726 37.2778281,213.983799" id="Fill-18" fill="#FFFFFF" mask="url(#mask-2)"></path>
                    <path d="M55.4262443,203.462011 L65.3588235,203.462011 C65.3588235,200.281006 63.3968326,198.201117 60.4538462,198.201117 C57.6334842,198.201117 55.5488688,200.281006 55.4262443,203.462011 L55.4262443,203.462011 Z M67.19819,208.111173 C66.7076923,210.802793 64.1325792,212.760335 60.699095,212.760335 C56.2846154,212.760335 53.4642534,209.701676 53.4642534,204.685475 C53.4642534,199.79162 56.2846154,196.488268 60.5764706,196.488268 C64.7457014,196.488268 67.4434389,199.546927 67.4434389,204.196089 L67.4434389,205.052514 L55.4262443,205.052514 L55.4262443,205.17486 C55.4262443,208.722905 57.5108597,211.047486 60.699095,211.047486 C63.1515837,211.047486 64.7457014,209.824022 65.2361991,208.111173 L67.19819,208.111173 L67.19819,208.111173 Z" id="Fill-19" fill="#FFFFFF" mask="url(#mask-2)"></path>
                    <path d="M72.9615385,192.817877 L72.9615385,196.610615 L76.0271493,196.610615 L76.0271493,198.201117 L72.838914,198.201117 L72.838914,208.478212 C72.838914,210.191061 73.4520362,210.802793 74.9235294,210.802793 L76.0271493,210.802793 L76.0271493,212.515642 C75.7819005,212.515642 74.9235294,212.637989 74.5556561,212.637989 C71.980543,212.637989 70.8769231,211.536872 70.8769231,208.600559 L70.8769231,198.201117 L68.6696833,198.201117 L68.6696833,196.610615 L70.9995475,196.610615 L70.9995475,192.817877 L72.9615385,192.817877 L72.9615385,192.817877 Z" id="Fill-20" fill="#FFFFFF" mask="url(#mask-2)"></path>
                    <path d="M81.7904977,192.817877 L81.7904977,196.610615 L84.978733,196.610615 L84.978733,198.201117 L81.7904977,198.201117 L81.7904977,208.478212 C81.7904977,210.191061 82.4036199,210.802793 83.8751131,210.802793 L84.978733,210.802793 L84.978733,212.515642 C84.7334842,212.515642 83.8751131,212.637989 83.5072398,212.637989 C80.9321267,212.637989 79.8285068,211.536872 79.8285068,208.600559 L79.8285068,198.201117 L77.4986425,198.201117 L77.4986425,196.610615 L79.8285068,196.610615 L79.8285068,192.817877 L81.7904977,192.817877 L81.7904977,192.817877 Z" id="Fill-21" fill="#FFFFFF" mask="url(#mask-2)"></path>
                    <path d="M87.9217195,212.515642 L89.8837104,212.515642 L89.8837104,196.610615 L87.9217195,196.610615 L87.9217195,212.515642 Z M87.5538462,192.206145 C87.5538462,191.472067 88.1669683,190.860335 88.9027149,190.860335 C89.6384615,190.860335 90.2515837,191.472067 90.2515837,192.206145 C90.2515837,192.940223 89.6384615,193.551955 88.9027149,193.551955 C88.1669683,193.551955 87.5538462,192.940223 87.5538462,192.206145 L87.5538462,192.206145 Z" id="Fill-22" fill="#FFFFFF" mask="url(#mask-2)"></path>
                    <path d="M93.5624434,196.610615 L95.40181,196.610615 L95.40181,199.546927 C96.260181,197.589385 98.0995475,196.365922 100.674661,196.365922 C104.230769,196.365922 106.315385,198.568156 106.315385,202.238547 L106.315385,212.515642 L104.353394,212.515642 L104.353394,202.605587 C104.353394,199.79162 102.759276,198.201117 100.061538,198.201117 C97.2411765,198.201117 95.40181,200.281006 95.40181,203.217318 L95.40181,212.515642 L93.439819,212.515642 L93.439819,196.610615 L93.5624434,196.610615 Z" id="Fill-23" fill="#FFFFFF" mask="url(#mask-2)"></path>
                    <path d="M121.275566,204.563128 C121.275566,200.770391 119.19095,198.201117 116.125339,198.201117 C113.059729,198.201117 111.097738,200.770391 111.097738,204.563128 C111.097738,208.355866 113.182353,210.92514 116.125339,210.92514 C119.19095,210.92514 121.275566,208.355866 121.275566,204.563128 M109.748869,213.983799 L111.833484,213.983799 C112.201357,215.451955 113.9181,216.30838 116.370588,216.30838 C119.313575,216.30838 121.275566,214.840223 121.275566,212.393296 L121.275566,209.212291 C120.417195,211.292179 118.332579,212.637989 115.757466,212.637989 C111.71086,212.637989 109.013122,209.334637 109.013122,204.563128 C109.013122,199.669274 111.71086,196.488268 115.757466,196.488268 C118.332579,196.488268 120.417195,197.834078 121.275566,199.913966 L121.275566,196.610615 L123.114932,196.610615 L123.114932,212.27095 C123.114932,215.941341 120.417195,218.143575 116.125339,218.143575 C112.691855,218.143575 110.116742,216.430726 109.748869,213.983799" id="Fill-24" fill="#FFFFFF" mask="url(#mask-2)"></path>
                    <path d="M136.235747,192.817877 L136.235747,196.610615 L139.423982,196.610615 L139.423982,198.201117 L136.235747,198.201117 L136.235747,208.478212 C136.235747,210.191061 136.848869,210.802793 138.320362,210.802793 L139.423982,210.802793 L139.423982,212.515642 C139.178733,212.515642 138.320362,212.637989 137.952489,212.637989 C135.377376,212.637989 134.273756,211.536872 134.273756,208.600559 L134.273756,198.201117 L131.943891,198.201117 L131.943891,196.610615 L134.273756,196.610615 L134.273756,192.817877 L136.235747,192.817877 L136.235747,192.817877 Z" id="Fill-25" fill="#FFFFFF" mask="url(#mask-2)"></path>
                    <path d="M153.403167,204.563128 C153.403167,200.648045 151.441176,198.201117 148.130317,198.201117 C144.942081,198.201117 142.857466,200.648045 142.857466,204.563128 C142.857466,208.478212 144.819457,210.92514 148.130317,210.92514 C151.441176,211.047486 153.403167,208.600559 153.403167,204.563128 M140.895475,204.563128 C140.895475,199.546927 143.715837,196.488268 148.130317,196.488268 C152.544796,196.488268 155.365158,199.669274 155.365158,204.563128 C155.365158,209.57933 152.544796,212.760335 148.130317,212.760335 C143.838462,212.760335 140.895475,209.57933 140.895475,204.563128" id="Fill-26" fill="#FFFFFF" mask="url(#mask-2)"></path>
                    <path d="M167.750226,192.817877 L167.750226,196.610615 L170.938462,196.610615 L170.938462,198.201117 L167.750226,198.201117 L167.750226,208.478212 C167.750226,210.191061 168.363348,210.802793 169.834842,210.802793 L170.938462,210.802793 L170.938462,212.515642 C170.693213,212.515642 169.834842,212.637989 169.466968,212.637989 C166.891855,212.637989 165.788235,211.536872 165.788235,208.600559 L165.788235,198.201117 L163.458371,198.201117 L163.458371,196.610615 L165.788235,196.610615 L165.788235,192.817877 L167.750226,192.817877 L167.750226,192.817877 Z" id="Fill-27" fill="#FFFFFF" mask="url(#mask-2)"></path>
                    <path d="M173.881448,190.37095 L175.843439,190.37095 L175.843439,199.669274 C176.70181,197.711732 178.541176,196.488268 181.11629,196.488268 C184.549774,196.488268 186.757014,198.812849 186.757014,202.360894 L186.757014,212.515642 L184.795023,212.515642 L184.795023,202.605587 C184.795023,199.79162 183.200905,198.201117 180.503167,198.201117 C177.560181,198.201117 175.720814,200.281006 175.720814,203.217318 L175.720814,212.515642 L173.758824,212.515642 L173.758824,190.37095 L173.881448,190.37095 Z" id="Fill-28" fill="#FFFFFF" mask="url(#mask-2)"></path>
                    <path d="M191.539367,203.462011 L201.471946,203.462011 C201.471946,200.281006 199.509955,198.201117 196.566968,198.201117 C193.746606,198.201117 191.661991,200.281006 191.539367,203.462011 L191.539367,203.462011 Z M203.311312,208.111173 C202.820814,210.802793 200.245701,212.760335 196.812217,212.760335 C192.397738,212.760335 189.577376,209.701676 189.577376,204.685475 C189.577376,199.79162 192.397738,196.488268 196.689593,196.488268 C200.858824,196.488268 203.556561,199.546927 203.556561,204.196089 L203.556561,205.052514 L191.539367,205.052514 L191.539367,205.17486 C191.539367,208.722905 193.623982,211.047486 196.812217,211.047486 C199.264706,211.047486 200.858824,209.824022 201.349321,208.111173 L203.311312,208.111173 L203.311312,208.111173 Z" id="Fill-29" fill="#FFFFFF" mask="url(#mask-2)"></path>
                    <path d="M225.138462,204.563128 C225.138462,200.770391 223.053846,198.201117 219.988235,198.201117 C216.922624,198.201117 214.838009,200.770391 214.838009,204.563128 C214.838009,208.355866 216.922624,210.92514 219.988235,210.92514 C223.053846,211.047486 225.138462,208.478212 225.138462,204.563128 M227.100452,204.563128 C227.100452,209.456983 224.402715,212.760335 220.356109,212.760335 C217.780995,212.760335 215.819005,211.414525 214.960633,209.334637 L214.960633,217.898883 L212.998643,217.898883 L212.998643,196.732961 L214.838009,196.732961 L214.838009,200.036313 C215.69638,197.956425 217.780995,196.610615 220.356109,196.610615 C224.28009,196.488268 227.100452,199.79162 227.100452,204.563128" id="Fill-30" fill="#FFFFFF" mask="url(#mask-2)"></path>
                    <path d="M241.570136,204.563128 C241.570136,200.648045 239.608145,198.201117 236.297285,198.201117 C233.10905,198.201117 231.024434,200.648045 231.024434,204.563128 C231.024434,208.478212 232.986425,210.92514 236.297285,210.92514 C239.48552,211.047486 241.570136,208.600559 241.570136,204.563128 M229.062443,204.563128 C229.062443,199.546927 231.882805,196.488268 236.297285,196.488268 C240.711765,196.488268 243.532127,199.669274 243.532127,204.563128 C243.532127,209.57933 240.711765,212.760335 236.297285,212.760335 C231.882805,212.760335 229.062443,209.57933 229.062443,204.563128" id="Fill-31" fill="#FFFFFF" mask="url(#mask-2)"></path>
                    <path d="M246.352489,212.515642 L248.31448,212.515642 L248.31448,196.610615 L246.352489,196.610615 L246.352489,212.515642 Z M245.984615,192.206145 C245.984615,191.472067 246.597738,190.860335 247.333484,190.860335 C248.069231,190.860335 248.682353,191.472067 248.682353,192.206145 C248.682353,192.940223 248.069231,193.551955 247.333484,193.551955 C246.597738,193.551955 245.984615,192.940223 245.984615,192.206145 L245.984615,192.206145 Z" id="Fill-32" fill="#FFFFFF" mask="url(#mask-2)"></path>
                    <path d="M251.993213,196.610615 L253.832579,196.610615 L253.832579,199.546927 C254.69095,197.589385 256.530317,196.365922 259.10543,196.365922 C262.661538,196.365922 264.746154,198.568156 264.746154,202.238547 L264.746154,212.515642 L262.784163,212.515642 L262.784163,202.605587 C262.784163,199.79162 261.190045,198.201117 258.492308,198.201117 C255.671946,198.201117 253.832579,200.281006 253.832579,203.217318 L253.832579,212.515642 L251.870588,212.515642 L251.870588,196.610615 L251.993213,196.610615 Z" id="Fill-33" fill="#FFFFFF" mask="url(#mask-2)"></path>
                    <path d="M271,192.817877 L271,196.610615 L274.188235,196.610615 L274.188235,198.201117 L271,198.201117 L271,208.478212 C271,210.191061 271.613122,210.802793 273.084615,210.802793 L274.188235,210.802793 L274.188235,212.515642 C273.942986,212.515642 273.084615,212.637989 272.716742,212.637989 C270.141629,212.637989 269.038009,211.536872 269.038009,208.600559 L269.038009,198.201117 L266.708145,198.201117 L266.708145,196.610615 L269.038009,196.610615 L269.038009,192.817877 L271,192.817877 L271,192.817877 Z" id="Fill-34" fill="#FFFFFF" mask="url(#mask-2)"></path>
                    <path d="M277.744344,211.292179 C277.744344,210.435754 278.357466,209.946369 279.093213,209.946369 C279.951584,209.946369 280.442081,210.558101 280.442081,211.292179 C280.442081,212.026257 279.828959,212.637989 279.093213,212.637989 C278.357466,212.760335 277.744344,212.148603 277.744344,211.292179" id="Fill-35" fill="#FFFFFF" mask="url(#mask-2)"></path>
                    <polygon id="Stroke-36" stroke="#FFFFFF" stroke-linecap="round" stroke-linejoin="round" mask="url(#mask-2)" points="435.80724 2.32458101 435.561991 19.4530726 444.636199 26.4268156 522.257466 0.611731844"></polygon>
                    <polygon id="Stroke-37" stroke="#FFFFFF" stroke-linecap="round" stroke-linejoin="round" mask="url(#mask-2)" points="461.680995 62.1519553 449.541176 51.752514 450.276923 39.2731844 522.257466 0.611731844"></polygon>
                    <polygon id="Stroke-38" stroke="#FFFFFF" stroke-linecap="round" stroke-linejoin="round" mask="url(#mask-2)" points="444.636199 26.4268156 451.625792 30.9536313 450.276923 39.2731844 522.257466 0.611731844"></polygon>
                    <polygon id="Stroke-39" stroke="#FFFFFF" stroke-linecap="round" stroke-linejoin="round" mask="url(#mask-2)" points="451.625792 30.9536313 522.257466 0.611731844 450.276923 39.2731844"></polygon>
                </g>
                <g id="Page-1" transform="translate(126.000000, 125.000000)" stroke-linecap="round" stroke="#FFFFFF" stroke-linejoin="round">
                    <polygon id="Stroke-1" points="0.575 3.28431373 0.125 34.8529412 17 47.7058824 159.2 0.12745098"></polygon>
                    <polygon id="Stroke-3" points="48.05 113.54902 25.775 94.3823529 27.125 71.1568627 159.2 0.12745098"></polygon>
                    <polygon id="Stroke-5" points="17 47.7058824 29.6 56.0490196 27.125 71.1568627 159.2 0.12745098"></polygon>
                    <polygon id="Stroke-7" points="29.6 56.0490196 159.2 0.12745098 27.125 71.1568627"></polygon>
                </g>
                <g id="Page-1-Copy" transform="translate(405.000000, 224.000000)" stroke-linecap="round" stroke="#FFFFFF" stroke-linejoin="round">
                    <polygon id="Stroke-1" points="0.75109375 4.29265566 0.16328125 45.5534056 22.20625 62.3524252 207.955 0.166580667"></polygon>
                    <polygon id="Stroke-3" points="62.7653125 148.410561 33.6685938 123.359391 35.4320313 93.003268 207.955 0.166580667"></polygon>
                    <polygon id="Stroke-5" points="22.20625 62.3524252 38.665 73.2570519 35.4320313 93.003268 207.955 0.166580667"></polygon>
                    <polygon id="Stroke-7" points="38.665 73.2570519 207.955 0.166580667 35.4320313 93.003268"></polygon>
                </g>
                <g id="Page-1-Copy-2" transform="translate(0.000000, 408.000000)" stroke-linecap="round" stroke="#FFFFFF" stroke-linejoin="round">
                    <polygon id="Stroke-1" points="0.808870192 4.60956312 0.175841346 48.9164087 23.9144231 66.9556244 223.951538 0.178878569"></polygon>
                    <polygon id="Stroke-3" points="67.5934135 159.367045 36.2584856 132.46646 38.1575721 99.869281 223.951538 0.178878569"></polygon>
                    <polygon id="Stroke-5" points="23.9144231 66.9556244 41.6392308 78.6652907 38.1575721 99.869281 223.951538 0.178878569"></polygon>
                    <polygon id="Stroke-7" points="41.6392308 78.6652907 223.951538 0.178878569 38.1575721 99.869281"></polygon>
                </g>
                <g id="Page-1-Copy-3" transform="translate(806.000000, 101.000000)" stroke-linecap="round" stroke="#FFFFFF" stroke-linejoin="round">
                    <polygon id="Stroke-1" points="1.15552885 6.59743722 0.251201923 70.0116099 34.1634615 95.8302374 319.930769 0.256019952"></polygon>
                    <polygon id="Stroke-3" points="96.5620192 228.094083 51.7978365 189.592621 54.5108173 142.937908 319.930769 0.256019952"></polygon>
                    <polygon id="Stroke-5" points="34.1634615 95.8302374 59.4846154 112.589697 54.5108173 142.937908 319.930769 0.256019952"></polygon>
                    <polygon id="Stroke-7" points="59.4846154 112.589697 319.930769 0.256019952 54.5108173 142.937908"></polygon>
                </g>
                <g id="Page-1-Copy-4" transform="translate(792.000000, 633.000000)" stroke-linecap="round" stroke="#FFFFFF" stroke-linejoin="round">
                    <polygon id="Stroke-1" points="0.563320313 3.22669419 0.122460938 34.2414861 16.6546875 46.868937 155.96625 0.125214998"></polygon>
                    <polygon id="Stroke-3" points="47.0739844 111.556932 25.2514453 92.7265222 26.5740234 69.9084967 155.96625 0.125214998"></polygon>
                    <polygon id="Stroke-5" points="16.6546875 46.868937 28.99875 55.0657035 26.5740234 69.9084967 155.96625 0.125214998"></polygon>
                    <polygon id="Stroke-7" points="28.99875 55.0657035 155.96625 0.125214998 26.5740234 69.9084967"></polygon>
                </g>
                <g id="Page-1-Copy-5" transform="translate(360.000000, 847.000000)" stroke-linecap="round" stroke="#FFFFFF" stroke-linejoin="round">
                    <polygon id="Stroke-1" points="1.44080003 8.26870926 0.313217398 87.747049 42.5975661 120.106087 398.913678 0.320875285"></polygon>
                    <polygon id="Stroke-3" points="120.400768 285.875196 64.5854274 237.62049 67.9681753 179.14714 398.913678 0.320875285"></polygon>
                    <polygon id="Stroke-5" points="42.5975661 120.106087 74.1698798 141.111077 67.9681753 179.14714 398.913678 0.320875285"></polygon>
                    <polygon id="Stroke-7" points="74.1698798 141.111077 398.913678 0.320875285 67.9681753 179.14714"></polygon>
                </g>
                <g id="Page-1-Copy-6" transform="translate(87.000000, 755.000000)" stroke-linecap="round" stroke="#FFFFFF" stroke-linejoin="round">
                    <polygon id="Stroke-1" points="0.595819561 3.41156536 0.129525992 36.2033279 17.6155349 49.5542598 164.964303 0.132389103"></polygon>
                    <polygon id="Stroke-3" points="49.7897912 117.948507 26.7082595 98.039223 28.1071402 73.9138548 164.964303 0.132389103"></polygon>
                    <polygon id="Stroke-5" points="17.6155349 49.5542598 30.6717548 58.2206542 28.1071402 73.9138548 164.964303 0.132389103"></polygon>
                    <polygon id="Stroke-7" points="30.6717548 58.2206542 164.964303 0.132389103 28.1071402 73.9138548"></polygon>
                </g>
                <g id="Page-1-Copy-7" transform="translate(929.000000, 914.000000)" stroke-linecap="round" stroke="#FFFFFF" stroke-linejoin="round">
                    <polygon id="Stroke-1" points="0.38276893 2.19727938 0.083210637 23.3173976 11.3166466 31.9163029 105.977067 0.0852675581"></polygon>
                    <polygon id="Stroke-3" points="31.9861689 75.9668353 17.1580334 63.1439063 18.0567082 47.6055336 105.977067 0.0852675581"></polygon>
                    <polygon id="Stroke-5" points="11.3166466 31.9163029 19.7042788 37.4980485 18.0567082 47.6055336 105.977067 0.0852675581"></polygon>
                    <polygon id="Stroke-7" points="19.7042788 37.4980485 105.977067 0.0852675581 18.0567082 47.6055336"></polygon>
                </g>
                <g id="Page-1" transform="translate(683.000000, 433.000000)">
                    <polygon id="Fill-1" fill="#FFC400" points="0.258377465 1.81163529 0.000518309859 19.9292824 9.71753239 27.3057529 91.6117859 -0.000129411765"></polygon>
                    <polygon id="Fill-2" fill="#FFC400" points="91.6117859 -0.000129411765 15.5485183 40.7645765 14.7723493 54.0939882 27.6005183 65.0939882"></polygon>
                    <polygon id="Fill-3" fill="#FFB300" points="9.71753239 27.3057529 16.9751662 32.0939882 15.5485183 40.7645765 91.6117859 -0.000129411765"></polygon>
                    <polygon id="Fill-4" fill="#FFE57F" points="91.6117859 -0.000129411765 16.9751662 32.0939882 15.5485183 40.7645765"></polygon>
                </g>
            </g>
        </g>
    </g>
</svg>